<svg fill="none" height="43" viewBox="0 0 110 43" width="110" xmlns="http://www.w3.org/2000/svg"><path d="m10.2204 35.9375v-28.86044h2.5293v28.86044zm1.5241-2.4969c-1.85918 0-3.46974-.3243-4.8317-.9728-1.36195-.6702-2.43206-1.589-3.21032-2.7564-.75664-1.189-1.19982-2.5725-1.32953-4.1507l4.18315-.227c.12971.9729.41075 1.7944.84311 2.4645.43237.6702 1.01606 1.189 1.75109 1.5565.73502.3459 1.6214.5189 2.6591.5189.8863 0 1.6429-.1081 2.2699-.3243.6269-.2378 1.1025-.5729 1.4268-1.0053.3459-.4323.5188-.962.5188-1.5889 0-.6053-.1405-1.1241-.4215-1.5565-.2811-.454-.8215-.8647-1.6214-1.2323-.7783-.3675-1.9348-.7242-3.4697-1.0701-1.85922-.454-3.3617-.9512-4.50747-1.4916-1.12415-.5405-1.93484-1.2107-2.43206-2.0105-.49722-.8215-.74583-1.8484-.74583-3.0806 0-1.3188.32427-2.4753.97282-3.4698.64855-1.016 1.57814-1.7943 2.78877-2.3348 1.21062-.562 2.66986-.84308 4.37767-.84308 1.7944 0 3.3184.32428 4.5723.97278 1.2539.627 2.2375 1.5025 2.9509 2.6267.735 1.1241 1.1782 2.4104 1.3295 3.8588l-4.1831.227c-.0865-.8215-.3243-1.5457-.7134-2.1726s-.9188-1.1134-1.589-1.4592c-.6701-.3459-1.4808-.5189-2.432-.5189-1.21064 0-2.16185.2811-2.85364.8431-.67016.5405-1.00525 1.2539-1.00525 2.1402 0 .6054.14052 1.1134.42156 1.5241.30265.3892.82149.7351 1.55652 1.0377.73502.2811 1.77271.5729 3.11301.8756 2.0105.4539 3.5995 1.0052 4.7669 1.6538 1.189.6269 2.0321 1.3835 2.5293 2.2699.5189.8647.7783 1.8592.7783 2.9833 0 1.362-.3567 2.551-1.0701 3.567-.6918.9945-1.6755 1.7727-2.9509 2.3348-1.2539.5405-2.7348.8107-4.4426.8107zm16.3516-.4216v-15.7921h-4.929v-3.2104h1.9781c.9295 0 1.6754-.1189 2.2374-.3567.5621-.2378.9621-.6485 1.1999-1.2322.2594-.6053.3891-1.416.3891-2.43207h3.34v23.02347zm9.2339 5.1236 1.6863-5.1236h-1.9781v-4.5398h4.7344v4.021l-2.1402 5.6424zm16.2984-4.6047c-1.7943 0-3.3184-.2811-4.5723-.8431-1.2538-.5621-2.2267-1.3404-2.9185-2.3348-.6917-1.0161-1.1025-2.1943-1.2322-3.5346l4.3129-.227c.1729 1.0809.6485 1.8916 1.4268 2.4321.7782.5404 1.7727.8106 2.9833.8106 1.4052 0 2.4969-.3783 3.2752-1.1349.7998-.7783 1.1998-1.87 1.1998-3.2752 0-.8863-.1838-1.6646-.5513-2.3348-.3459-.6701-.8539-1.189-1.5241-1.5565-.6701-.3675-1.4808-.5513-2.432-.5513-.9729 0-1.8268.2162-2.5618.6486-.7134.4107-1.2323.962-1.5565 1.6538h-4.2805l1.589-13.29527h14.1059v3.66427h-10.4416l-.908 7.3286-.5512-.4864c.3459-.6053.7998-1.1133 1.3619-1.5241.5621-.4323 1.2106-.7566 1.9457-.9728.7566-.2162 1.5673-.3243 2.432-.3243 1.5565 0 2.9077.3351 4.0535 1.0053 1.1673.6702 2.0645 1.5889 2.6914 2.7563.6486 1.1674.9729 2.4969.9729 3.9886 0 1.6214-.3675 3.0482-1.1026 4.2804-.7134 1.2107-1.7402 2.1511-3.0806 2.8212-1.3187.6702-2.8644 1.0053-4.6371 1.0053zm21.8318 0c-1.9457 0-3.6427-.4864-5.0911-1.4593-1.4268-.9728-2.5294-2.3564-3.3076-4.1507-.7783-1.7943-1.1674-3.9237-1.1674-6.3882s.3891-4.5939 1.1674-6.3882c.7782-1.8159 1.8808-3.2103 3.3076-4.1831 1.4484-.99449 3.1454-1.49171 5.0911-1.49171 1.9889 0 3.6967.49722 5.1235 1.49171 1.4268.9728 2.5294 2.3564 3.3076 4.1507.7783 1.7943 1.1674 3.9345 1.1674 6.4206 0 2.4645-.3891 4.5939-1.1674 6.3882-.7782 1.7943-1.8808 3.1779-3.3076 4.1507-1.4268.9729-3.1346 1.4593-5.1235 1.4593zm0-3.6643c1.6862 0 2.9833-.7026 3.8913-2.1078.908-1.4268 1.3619-3.5022 1.3619-6.2261 0-1.8159-.2053-3.3508-.6161-4.6047-.4107-1.2539-1.0052-2.1942-1.7835-2.8212-.7566-.6485-1.7078-.9728-2.8536-.9728-1.1025 0-2.0429.3243-2.8212.9728-.7783.627-1.3728 1.5673-1.7835 2.8212-.4108 1.2539-.6161 2.7888-.6161 4.6047 0 2.7239.4539 4.7993 1.3619 6.2261.908 1.4052 2.1943 2.1078 3.8589 2.1078zm22.2622 3.6643c-1.9456 0-3.6427-.4864-5.0911-1.4593-1.4268-.9728-2.5293-2.3564-3.3076-4.1507s-1.1674-3.9237-1.1674-6.3882.3891-4.5939 1.1674-6.3882c.7783-1.8159 1.8808-3.2103 3.3076-4.1831 1.4484-.99449 3.1455-1.49171 5.0911-1.49171 1.9889 0 3.6966.49722 5.1236 1.49171 1.427.9728 2.529 2.3564 3.308 4.1507.778 1.7943 1.167 3.9345 1.167 6.4206 0 2.4645-.389 4.5939-1.167 6.3882-.779 1.7943-1.881 3.1779-3.308 4.1507-1.427.9729-3.1347 1.4593-5.1236 1.4593zm0-3.6643c1.6862 0 2.9836-.7026 3.8916-2.1078.908-1.4268 1.362-3.5022 1.362-6.2261 0-1.8159-.206-3.3508-.616-4.6047-.411-1.2539-1.006-2.1942-1.784-2.8212-.7566-.6485-1.7078-.9728-2.8536-.9728-1.1025 0-2.0429.3243-2.8212.9728-.7782.627-1.3727 1.5673-1.7835 2.8212-.4107 1.2539-.6161 2.7888-.6161 4.6047 0 2.7239.454 4.7993 1.3619 6.2261.908 1.4052 2.1943 2.1078 3.8589 2.1078z" fill="#fff"/></svg>