<svg fill="none" height="27" viewBox="0 0 101 27" width="101" xmlns="http://www.w3.org/2000/svg"><rect fill="#baf24a" fill-opacity=".12" height="26.441" rx="6.61024" width="100.59" x=".149414" y=".027832"/><path d="m38.3559 16.7485v-7.82209h1.4322v7.38149l-.7822-.8043h4.495v1.2449zm8.5461.1322c-.5803 0-1.0907-.1248-1.5314-.3745-.4334-.2571-.7712-.617-1.0136-1.0797-.235-.4627-.3525-1.0026-.3525-1.6195 0-.6243.1175-1.1642.3525-1.6195.2424-.4628.5802-.819 1.0136-1.0687.4407-.2571.9511-.3856 1.5314-.3856.5802 0 1.087.1285 1.5203.3856.4334.2497.7675.6059 1.0026 1.0687.2423.4553.3635.9952.3635 1.6195 0 .6169-.1212 1.1568-.3635 1.6195-.2351.4627-.5692.8226-1.0026 1.0797-.4333.2497-.9401.3745-1.5203.3745zm0-1.1457c.4553 0 .8042-.169 1.0466-.5068.2497-.3379.3746-.8116.3746-1.4212 0-.6023-.1249-1.0724-.3746-1.4102-.2424-.3452-.5913-.5178-1.0466-.5178-.4554 0-.808.1726-1.0577.5178-.2497.3378-.3746.8079-.3746 1.4102 0 .6096.1249 1.0833.3746 1.4212.2497.3378.6023.5068 1.0577.5068zm3.9746 1.0135v-5.8831h1.278l.0551 1.6526-.1653-.0661c.0588-.4113.18-.7418.3636-.9916.1836-.2497.4076-.4333.672-.5508.2645-.1175.5546-.1763.8704-.1763.4333 0 .7969.0955 1.0907.2865.3011.1909.5288.4553.683.7932.1543.3305.2314.7161.2314 1.1568v3.7788h-1.4102v-3.3271c0-.3305-.033-.6096-.0991-.8373s-.1763-.4003-.3306-.5178c-.1468-.1249-.3452-.1873-.5949-.1873-.3746 0-.6757.1322-.9034.3966-.2203.2644-.3305.6463-.3305 1.1458v3.3271zm8.9888 1.7848c-.5142 0-.9549-.0698-1.3221-.2093-.3672-.1396-.6647-.3379-.8924-.5949-.2203-.2498-.3746-.5399-.4627-.8704l1.4543-.0991c.0734.2203.1983.3929.3745.5178.1837.1248.4664.1872.8484.1872.4333 0 .7675-.0991 1.0025-.2974.235-.191.3526-.4921.3526-.9034v-.7492c-.1396.2865-.3636.5178-.6721.6941-.3085.1689-.6537.2534-1.0356.2534-.4847 0-.9181-.1175-1.3-.3526-.3746-.2423-.6684-.5765-.8814-1.0025-.213-.4333-.3195-.9328-.3195-1.4983 0-.5656.1029-1.0613.3085-1.4873.213-.4334.5068-.7712.8814-1.0136.3746-.2497.8042-.3746 1.289-.3746.426 0 .7932.0955 1.1017.2865.3085.1909.5325.4443.672.7601v-.9144h1.3772v5.3653c0 .4995-.1176.9218-.3526 1.267-.2277.3452-.5508.6023-.9695.7712-.4113.1763-.896.2644-1.4542.2644zm-.0221-3.1729c.4187 0 .7529-.1543 1.0026-.4627.2497-.3159.3782-.7492.3856-1.3.0073-.3673-.0478-.6794-.1653-.9365-.1102-.2644-.2717-.4664-.4847-.6059-.2057-.1469-.4517-.2204-.7382-.2204-.4333 0-.7712.1616-1.0135.4848-.2351.3158-.3526.7418-.3526 1.278 0 .5361.1212.9658.3636 1.2889.2497.3159.5839.4738 1.0025.4738z" fill="#647f2e"/></svg>