<svg fill="none" height="27" viewBox="0 0 101 27" width="101" xmlns="http://www.w3.org/2000/svg"><g fill="#ff7584"><rect fill-opacity=".12" height="26.441" rx="6.61024" width="100.59" x=".349609" y=".027832"/><path d="m39.9863 16.9248c-.6463 0-1.2045-.1138-1.6746-.3415s-.841-.5435-1.1127-.9475c-.2644-.4113-.4187-.8887-.4628-1.4322l1.4543-.0881c.0441.3378.1396.6243.2864.8593.1543.235.3563.415.606.5398.2571.1175.5655.1763.9254.1763.3085 0 .5692-.0367.7822-.1102.2204-.0808.3856-.1946.4958-.3415.1175-.1542.1763-.3415.1763-.5619 0-.1983-.0478-.3746-.1432-.5288-.0955-.1616-.2791-.3048-.5509-.4297-.2718-.1322-.6757-.2607-1.2119-.3856-.6463-.1469-1.1641-.3121-1.5534-.4957-.3893-.191-.672-.426-.8483-.7051-.1763-.2865-.2644-.6427-.2644-1.0687 0-.4553.1138-.8556.3415-1.20084.2277-.35254.5509-.6243.9695-.81526.4187-.19831.9218-.29746 1.5094-.29746.6243 0 1.1531.11384 1.5864.34153.4334.22034.7749.52514 1.0246.91443.2497.3893.404.8373.4627 1.3441l-1.4432.0661c-.0367-.2865-.1249-.5362-.2644-.7492-.1322-.213-.3158-.3782-.5509-.4958-.2277-.1248-.5068-.18725-.8373-.18725-.4113 0-.7381.09545-.9805.28645-.235.1836-.3525.4297-.3525.7381 0 .213.0477.3893.1432.5289.1028.1395.2828.2607.5398.3635.2571.0955.617.1983 1.0797.3085.6977.1469 1.2523.3342 1.6636.5619s.7051.4921.8813.7932c.1763.3011.2644.6463.2644 1.0356 0 .4774-.1211.8924-.3635 1.2449-.2424.3452-.5839.6133-1.0246.8043-.4407.1836-.9585.2754-1.5534.2754zm4.1242-.1763v-7.82209h1.4101v3.28309h-.1762c.0587-.3379.1762-.6133.3525-.8263.1763-.2203.393-.3819.65-.4847.2571-.1102.5399-.1653.8483-.1653.4334 0 .7969.0955 1.0907.2865.3012.1836.5252.4443.6721.7822.1542.3378.2313.7271.2313 1.1678v3.7788h-1.4102v-3.4373c0-.4774-.0807-.8336-.2423-1.0686-.1616-.2424-.415-.3636-.7602-.3636-.3819 0-.6867.1248-.9144.3746-.2277.2497-.3416.6133-.3416 1.0907v3.4042zm9.0328.1322c-.5803 0-1.0907-.1248-1.5314-.3745-.4334-.2571-.7712-.617-1.0136-1.0797-.235-.4627-.3525-1.0026-.3525-1.6195 0-.6243.1175-1.1642.3525-1.6195.2424-.4628.5802-.819 1.0136-1.0687.4407-.2571.9511-.3856 1.5314-.3856.5802 0 1.087.1285 1.5203.3856.4334.2497.7675.6059 1.0026 1.0687.2423.4553.3635.9952.3635 1.6195 0 .6169-.1212 1.1568-.3635 1.6195-.2351.4627-.5692.8226-1.0026 1.0797-.4333.2497-.9401.3745-1.5203.3745zm0-1.1457c.4553 0 .8042-.169 1.0466-.5068.2497-.3379.3746-.8116.3746-1.4212 0-.6023-.1249-1.0724-.3746-1.4102-.2424-.3452-.5913-.5178-1.0466-.5178-.4554 0-.808.1726-1.0577.5178-.2497.3378-.3746.8079-.3746 1.4102 0 .6096.1249 1.0833.3746 1.4212.2497.3378.6023.5068 1.0577.5068zm3.9746 1.0135v-5.8831h1.3221l.0551 1.6305-.1212-.022c.0881-.5655.2534-.9732.4957-1.2229.2498-.2571.5876-.3856 1.0136-.3856h.5398v1.2119h-.5508c-.3011 0-.5509.0441-.7492.1322s-.3488.2277-.4517.4186c-.0954.1837-.1432.426-.1432.7272v3.3932zm6.446 0c-.5875 0-1.0209-.1358-1.3-.4076-.2717-.2718-.4076-.6977-.4076-1.278v-5.57462h1.4102v5.44242c0 .2718.0587.4627.1763.5729.1175.1028.3011.1542.5508.1542h.8263v1.0907zm-2.633-4.7924v-1.0907h3.889v1.0907z"/></g></svg>