<svg fill="none" height="44" viewBox="0 0 45 44" width="45" xmlns="http://www.w3.org/2000/svg" xmlns:xlink="http://www.w3.org/1999/xlink"><linearGradient id="a" gradientUnits="userSpaceOnUse" x1="3.76343" x2="41.4035" y1="14.0526" y2="14.0526"><stop offset="0" stop-color="#d93025"/><stop offset="1" stop-color="#ea4335"/></linearGradient><linearGradient id="b" gradientUnits="userSpaceOnUse" x1="19.6176" x2="38.4375" y1="43.6437" y2="11.0466"><stop offset="0" stop-color="#fcc934"/><stop offset="1" stop-color="#fbbc04"/></linearGradient><linearGradient id="c" gradientUnits="userSpaceOnUse" x1="24.9413" x2="6.12147" y1="42.5825" y2="9.98523"><stop offset="0" stop-color="#1e8e3e"/><stop offset="1" stop-color="#34a853"/></linearGradient><path d="m22.583 33.0701c6.0017 0 10.8671-4.8654 10.8671-10.8671s-4.8654-10.8671-10.8671-10.8671c-6.0018 0-10.8672 4.8654-10.8672 10.8671s4.8654 10.8671 10.8672 10.8671z" fill="#fff"/><path d="m22.5842 11.3359h18.8193c-1.907-3.30419-4.6503-6.04802-7.9541-7.95564s-7.0517-2.911776-10.8667-2.91151-7.5627 1.00495-10.8662 2.91303c-3.30357 1.90807-6.04652 4.65229-7.95307 7.95672l9.40967 16.2979.0084-.0021c-.9572-1.6507-1.4623-3.5245-1.4645-5.4326-.0021-1.9081.4988-3.7831 1.4523-5.4358.9535-1.6528 2.3259-3.0251 3.9788-3.9784s3.5279-1.454 5.4361-1.4516z" fill="url(#a)"/><path d="m22.5831 30.8077c4.7514 0 8.6032-3.8517 8.6032-8.603 0-4.7514-3.8518-8.6031-8.6032-8.6031s-8.6031 3.8517-8.6031 8.6031c0 4.7513 3.8517 8.603 8.6031 8.603z" fill="#1a73e8"/><path d="m31.9966 27.6364-9.4097 16.2979c3.815.0005 7.5629-1.0034 10.8668-2.9107 3.304-1.9074 6.0475-4.651 7.9547-7.955 1.9073-3.304 2.911-7.0519 2.9104-10.8669-.0007-3.8149-1.0058-7.5625-2.9142-10.8658h-18.8193l-.0023.0085c1.9081-.0037 3.7835.4957 5.4371 1.4479 1.6535.9522 3.0269 2.3235 3.9815 3.9756.9546 1.6522 1.4568 3.5268 1.4559 5.4349s-.5048 3.7823-1.4609 5.4336z" fill="url(#b)"/><path d="m13.1781 27.6417-9.4097-16.2979c-1.90798 3.3035-2.912545 7.0512-2.912687 10.8662s1.004147 7.5627 2.911877 10.8665c1.90773 3.3037 4.65167 6.0469 7.95591 7.9538 3.3042 1.9069 7.0523 2.9103 10.8673 2.9092l9.4097-16.298-.0061-.0061c-.9509 1.6543-2.3211 3.0286-3.9726 3.9846-1.6514.9559-3.5256 1.4595-5.4337 1.4602-1.9082.0006-3.7827-.5018-5.4348-1.4566-1.652-.9548-3.0232-2.3282-3.9752-3.9819z" fill="url(#c)"/></svg>