<svg fill="none" height="1024" viewBox="0 0 1024 1024" width="1024" xmlns="http://www.w3.org/2000/svg" xmlns:xlink="http://www.w3.org/1999/xlink"><clipPath id="a"><rect height="1024" rx="512" width="1024"/></clipPath><clipPath id="b"><path d="m92.9443 650.709h836.635v836.635h-836.635z"/></clipPath><g clip-path="url(#a)"><rect fill="#e5ffc3" height="1024" rx="512" width="1024"/><circle cx="511.248" cy="511.248" fill="#cce7ff" r="511.248"/><g clip-path="url(#b)"><g fill="#ff5c16"><path d="m874.786 1424.83-180.211-53.33-135.904 80.74-94.819-.04-135.982-80.7-180.132 53.33-54.7937-183.83 54.7937-204.02-54.7937-172.488 54.7937-213.783 281.471 167.121h164.106l281.471-167.121 54.793 213.783-54.793 172.488 54.793 204.02z"/><path d="m147.782 650.709 281.452 167.227-11.193 114.765z"/><path d="m441.881 1086.06-23.801-153.266-152.352 104.216-.079-.04v.08l.472 107.28 61.781-58.27h.039z"/><path d="m874.79 650.709-281.452 167.227 11.154 114.765z"/><path d="m756.879 1037.05h.039-.039v-.08l-.04.04-152.351-104.216-23.801 153.266h113.939l61.821 58.27z"/></g><path d="m593.357 817.839h-82.053-82.053l-11.155 114.773 58.171 374.868h70.073l58.211-374.868z" fill="#ff8d5d"/><path d="m147.738 650.709-54.7937 213.783 54.7937 172.488h117.836l152.44-104.26z" fill="#661800"/><path d="m874.802 650.709 54.793 213.783-54.793 172.488h-117.836l-152.441-104.26z" fill="#661800"/></g><path d="m304.264 647.155v-107.063h272.788v-53.474h-200.224l-72.564-62.809v-128.326l72.564-73.076h67.717v-70.275h132.507v70.275h140.282v107.063h-272.789v53.474h201.246l72.565 68.985v122.15l-72.565 73.076h-68.739v70.275l-132.507.909v-71.184z" fill="#190066"/></g></svg>