<svg fill="none" height="800" viewBox="0 0 32 32" width="800" xmlns="http://www.w3.org/2000/svg" xmlns:xlink="http://www.w3.org/1999/xlink"><linearGradient id="a" gradientUnits="userSpaceOnUse" x1="13.6655" x2="13.6655" y1="2.4564" y2="29.5926"><stop offset=".3" stop-color="#ff1b2d"/><stop offset=".4381" stop-color="#fa1a2c"/><stop offset=".5939" stop-color="#ed1528"/><stop offset=".7581" stop-color="#d60e21"/><stop offset=".9272" stop-color="#b70519"/><stop offset="1" stop-color="#a70014"/></linearGradient><linearGradient id="b" gradientUnits="userSpaceOnUse" x1="20.696" x2="20.696" y1="4.05613" y2="28.0566"><stop offset="0" stop-color="#9c0000"/><stop offset=".7" stop-color="#ff4b4b"/></linearGradient><path d="m11.3953 23.8859c-1.55311-1.8265-2.54842-4.5281-2.61405-7.5578v-.6562c.06563-3.0297 1.07188-5.73127 2.61405-7.55784 2.0125-2.60312 4.9656-3.77343 8.3016-3.77343 2.0562 0 3.9922.14218 5.6328 1.23593-2.461-2.22031-5.7094-3.56562-9.275-3.57656h-.0547c-7.73281 0-14 6.26719-14 14 0 7.5031 5.90625 13.6391 13.3328 13.9891.2188.0109.4484.0109.6672.0109 3.5875 0 6.8578-1.3453 9.3297-3.5656-1.6406 1.0937-3.4672 1.1375-5.5235 1.1375-3.3249.0109-6.4093-1.0719-8.4109-3.686z" fill="url(#a)"/><path d="m11.3955 8.11426c1.2797-1.52031 2.9422-2.42813 4.7578-2.42813 4.0797 0 7.3828 4.61567 7.3828 10.32497 0 5.7094-3.3031 10.325-7.3828 10.325-1.8156 0-3.4672-.9187-4.7578-2.4281 2.0125 2.6031 4.9984 4.2656 8.3234 4.2656 2.0454 0 3.9704-.6234 5.611-1.7172 2.8656-2.5812 4.6703-6.3109 4.6703-10.4562s-1.8047-7.875-4.6703-10.43438c-1.6406-1.09375-3.5547-1.71719-5.611-1.71719-3.3359 0-6.3218 1.65157-8.3234 4.26563z" fill="url(#b)"/></svg>