<svg viewBox="0 0 68 101" xmlns="http://www.w3.org/2000/svg"><path d="m25.37 22.8401c-.43 0-.86-.11-1.26-.34l-11.69-6.75c-.58-.34-1-.88-1.18-1.54-.18-.65-.09-1.34.25-1.92l3.37-5.84003c.7-1.21 2.25-1.62 3.46-.93l11.69 6.75003c1.21.7 1.62 2.25.93 3.46l-3.38 5.84c-.47.81-1.32 1.27-2.2 1.27zm-8.31-15.97003c-.29 0-.58.15-.73.42l-3.37 5.84003c-.11.2-.14.42-.08.64s.2.4.39.51l11.69 6.75c.4.23.92.09 1.15-.31l3.38-5.84c.23-.4.09-.92-.31-1.15l-11.69-6.75003c-.13-.08-.28-.11-.42-.11zm8.54 10.52003c-.17 0-.34-.05-.49-.16-.38-.27-.47-.8-.2-1.18s.8-.47 1.17-.2c.38.28.47.8.2 1.18-.17.23-.42.35-.69.35zm-4.39-.85c-.43 0-.86-.11-1.26-.34-.58-.34-1-.88-1.18-1.54-.17-.65-.08-1.33.25-1.92s.88-1 1.54-1.18c.65-.18 1.33-.09 1.92.25 1.21.7 1.62 2.25.93 3.46-.47.81-1.32 1.26-2.2 1.26zm.01-3.37c-.29 0-.58.15-.73.42-.23.4-.09.92.31 1.15.41.23.92.09 1.15-.31s.09-.92-.31-1.15c-.13-.08-.28-.11-.42-.11zm-4.38-.84c-.17 0-.34-.05-.49-.16-.38-.27-.47-.8-.2-1.18s.8-.47 1.17-.2c.38.28.47.8.2 1.18-.17.23-.42.35-.69.35zm25.22 23.99c-.25 0-.49-.03-.74-.1-.73-.2-1.34-.66-1.72-1.32l-3.77-6.53c-.38-.65-.48-1.42-.28-2.14s.66-1.34 1.32-1.72l13.05-7.54c.65-.38 1.41-.48 2.14-.28s1.34.66 1.72 1.32l3.77 6.53c.38.65.48 1.41.28 2.14s-.66 1.34-1.32 1.72l-13.05 7.54c-.43.25-.92.38-1.41.38zm9.28-17.83c-.16 0-.32.04-.47.13l-13.06 7.54c-.22.13-.37.33-.44.57s-.03.5.09.72l3.77 6.53c.26.45.84.6 1.29.34l13.06-7.54c.22-.13.37-.33.44-.57s.03-.5-.09-.71l-3.77-6.53c-.13-.22-.33-.37-.57-.44-.08-.02-.16-.03-.25-.03zm-9.54 11.75c-.31 0-.62-.16-.8-.44-.28-.44-.14-1.02.3-1.3s1.02-.14 1.3.3.15 1.02-.3 1.3c-.16.1-.33.15-.5.15zm4.91-.95c-.98 0-1.93-.51-2.45-1.41-.78-1.35-.32-3.08 1.03-3.86s3.08-.31 3.86 1.04c.38.65.48 1.41.28 2.14s-.66 1.34-1.32 1.72c-.44.26-.93.38-1.41.38zm-.01-3.77c-.16 0-.32.04-.47.13-.45.26-.6.84-.34 1.29s.84.6 1.29.34c.22-.13.37-.33.44-.57s.03-.5-.09-.71c-.17-.3-.49-.47-.82-.47zm4.89-.93c-.33 0-.65-.17-.82-.49-.25-.45-.09-1.03.37-1.28.46-.26 1.03-.09 1.29.36s.09 1.03-.36 1.28c-.15.09-.3.12-.46.12zm-4.24 39.7199c-.83 0-1.66-.32-2.3-.95l-12.25-12.25c-1.27-1.27-1.27-3.33 0-4.59l6.12-6.12c1.27-1.27 3.33-1.27 4.59 0l12.25 12.25c.61.61.95 1.43.95 2.3s-.34 1.68-.95 2.3l-6.12 6.12c-.63.63-1.47.95-2.3.95zm-.76-2.48c.42.42 1.11.42 1.53 0l6.12-6.12c.21-.2.32-.48.32-.77s-.11-.56-.32-.76l-12.25-12.25c-.42-.42-1.11-.42-1.53 0l-6.12 6.12c-.42.42-.42 1.11 0 1.53zm2.29-4.28c-.27 0-.55-.11-.76-.32-.42-.43-.42-1.12 0-1.54s1.11-.42 1.53 0 .43 1.11 0 1.54c-.21.21-.49.32-.77.32zm-4.59-2.43c-.83 0-1.66-.32-2.29-.95-1.27-1.27-1.27-3.33 0-4.59s3.33-1.27 4.59 0c1.27 1.27 1.27 3.33 0 4.59-.63.63-1.46.95-2.3.95zm0-4.33c-.28 0-.55.11-.77.32-.42.42-.42 1.11 0 1.53s1.11.42 1.53 0 .42-1.11 0-1.53c-.21-.21-.49-.32-.76-.32zm-4.6-2.43c-.27 0-.55-.11-.76-.32-.42-.43-.42-1.12 0-1.54s1.11-.42 1.53 0 .43 1.11 0 1.54c-.21.21-.49.32-.77.32zm-18.44 28.2499c-.67 0-1.31-.26-1.79-.74l-4.76-4.76c-.48-.48-.74-1.11-.74-1.79s.26-1.31.74-1.79l9.53-9.53c.99-.98 2.59-.98 3.57 0l4.76 4.76c.98.99.98 2.59 0 3.57l-9.53 9.53c-.48.48-1.11.74-1.79.74zm4.77-17.65c-.22 0-.43.08-.59.25l-9.53 9.53c-.16.16-.25.37-.25.59s.09.44.25.59l4.76 4.76c.32.32.87.32 1.19 0l9.53-9.53c.33-.33.33-.86 0-1.19l-4.76-4.76c-.16-.16-.38-.25-.59-.25zm-5.95 12.39c-.22 0-.43-.08-.59-.25-.33-.33-.33-.86 0-1.19s.86-.33 1.19 0 .33.86 0 1.19c-.17.17-.38.25-.6.25zm3.56-1.88c-.65 0-1.29-.25-1.79-.74-.98-.98-.99-2.59 0-3.57s2.59-.98 3.57 0c.98.99.98 2.59 0 3.57-.49.49-1.14.74-1.79.74zm.01-3.37c-.22 0-.43.08-.6.25-.33.33-.33.86 0 1.19s.86.33 1.19 0 .33-.86 0-1.19c-.16-.16-.38-.25-.59-.25zm3.57-1.89c-.22 0-.43-.08-.59-.25-.33-.33-.33-.86 0-1.19s.86-.33 1.19 0 .33.86 0 1.19c-.17.17-.38.25-.6.25zm29.45 36.6801c-.28 0-.57-.04-.84-.11-.84-.22-1.54-.76-1.97-1.5099l-8.66-15c-.43-.75-.55-1.63-.33-2.46s.76-1.54 1.51-1.97l7.5-4.33c.75-.43 1.62-.55 2.46-.33s1.54.76 1.97 1.51l8.66 15c.43.75.55 1.63.32 2.46-.22.84-.76 1.54-1.51 1.97l-7.5 4.3299c-.5.29-1.06.44-1.62.44zm-1.17-23.6599c-.19 0-.37.05-.54.15l-7.5 4.33c-.25.14-.43.38-.5.66s-.04.57.11.82l8.66 15c.14.25.38.43.66.5s.57.04.82-.11l7.5-4.33c.25-.14.43-.38.5-.66s.04-.57-.11-.82l-8.66-15c-.14-.25-.38-.43-.66-.5-.09-.03-.19-.04-.28-.04zm3.83 17.45c-.37 0-.72-.18-.92-.52-.31-.52-.14-1.19.37-1.5s1.18-.14 1.49.37.14 1.18-.37 1.49c-.18.11-.37.16-.56.16zm-3.24-3.45c-.28 0-.57-.04-.85-.11-.84-.22-1.54-.76-1.97-1.51s-.55-1.63-.33-2.46c.22-.84.76-1.54 1.51-1.97 1.55-.9 3.54-.36 4.44 1.19.43.75.55 1.63.32 2.46s-.76 1.54-1.51 1.97c-.5.29-1.05.44-1.62.44zm-.55-4.19c-.25.14-.43.38-.5.66s-.04.57.11.82c.14.25.38.43.66.5.28.08.57.04.82-.11.25-.14.43-.38.51-.66.07-.28.04-.57-.11-.82-.3-.52-.96-.69-1.48-.4zm-2.71-3.61c-.35 0-.69-.17-.9-.48-.33-.51-.2-1.18.3-1.51s1.17-.2 1.5.3.2 1.17-.3 1.51c-.19.12-.4.18-.6.18zm-16.98 8.9699h-12.99c-1.34 0-2.44-1.09-2.44-2.44v-6.5c0-1.34 1.09-2.44 2.44-2.44h12.99c1.34 0 2.44 1.09 2.44 2.44v6.5c0 1.34-1.09 2.44-2.44 2.44zm-13-9.74c-.45 0-.81.36-.81.81v6.5c0 .45.36.81.81.81h12.99c.45 0 .81-.36.81-.81v-6.5c0-.45-.36-.81-.81-.81zm6.5 6.5c-1.34 0-2.44-1.09-2.44-2.44s1.09-2.44 2.44-2.44 2.44 1.09 2.44 2.44-1.09 2.44-2.44 2.44zm0-3.25c-.45 0-.81.36-.81.81s.36.81.81.81.81-.36.81-.81-.36-.81-.81-.81zm4.88 1.62c-.45 0-.82-.36-.82-.81s.36-.81.81-.81.81.36.81.81-.36.81-.81.81zm-9.75 0c-.45 0-.82-.36-.82-.81s.36-.81.81-.81.81.36.81.81-.36.81-.81.81zm-10.84-31.2001c-1.22 0-2.33-.81-2.66-2.04l-3.80996-14.2c-.39-1.47.48-2.98 1.95-3.38l7.09996-1.9c1.47-.39 2.98.48 3.38 1.95l3.81 14.2c.39 1.47-.48 2.98-1.95 3.38l-7.1 1.9c-.24.06-.48.09-.71.09zm3.29-19.78c-.08 0-.16 0-.24.03l-7.09996 1.9c-.49.13-.78.64-.65 1.12l3.80996 14.2c.13.49.64.78 1.12.65l7.1-1.9c.49-.13.78-.64.65-1.12l-3.81-14.2c-.11-.41-.48-.68-.89-.68zm-.22 15.23c-.42 0-.8-.29-.9-.72-.11-.5.2-.99.7-1.1.49-.11.99.2 1.1.69.11.5-.2 1-.7 1.11-.07.01-.13.02-.2.02zm-1.43-3.5c-.48 0-.95-.12-1.37-.37-.64-.37-1.09-.96-1.28-1.67s-.09-1.45.27-2.09c.37-.64.96-1.09 1.67-1.29 1.47-.39 2.98.48 3.38 1.95.19.71.09 1.46-.28 2.09s-.96 1.09-1.67 1.28c-.24.06-.48.09-.72.09zm0-3.68c-.08 0-.16 0-.24.03-.49.13-.78.64-.65 1.12.13.49.64.78 1.12.65.49-.13.78-.64.65-1.12-.11-.41-.48-.68-.89-.68zm-1.42-3.48c-.4 0-.76-.26-.88-.66-.15-.49.13-1 .61-1.15s1 .12 1.14.61c.15.5-.13 1.01-.62 1.15-.09.03-.18.04-.26.04zm29.4501-26.8399c-.34 0-.68-.04-1.02-.12-.74-.17-1.44-.53-2-1.04-.57-.51-1-1.15-1.26-1.87-.12-.34.06-.71.4-.83.33-.12.71.06.83.4.18.51.49.97.9 1.34.41.36.9.62 1.43.74s1.09.11 1.61-.04c.53-.15 1.01-.43 1.39-.81.39-.38.68-.86.83-1.38.16-.52.18-1.08001.07-1.61001s-.36-1.03-.72-1.44c-.35-.41-.81-.73-1.32-.92-.34-.12-.51-.5-.38-.83.12-.34.5-.51.83-.38.71.27 1.36.71 1.85 1.29.5.58.85 1.28 1 2.02.16.75.13 1.52001-.09 2.25001s-.62 1.4-1.17 1.93c-.54.53-1.22.93-1.95 1.13-.4.11-.82.17-1.24.17zm-.91-2.97c-.17 0-.33-.06-.46-.19-.25-.25-.25-.66 0-.92l1.38-1.38001c-.25-.26-.25-.67 0-.92.26-.25.67-.25.92 0l.45.46c.25.25.25.66 0 .92l-1.83 1.83001c-.13.13-.29.19-.46.19zm-4.28-2.22001c-2.51 0-4.55-2.04-4.55-4.55s2.04-4.5499998 4.55-4.5499998 4.55 2.0399998 4.55 4.5499998-2.04 4.55-4.55 4.55zm0-7.79c-1.79 0-3.25 1.46-3.25 3.25s1.46 3.25 3.25 3.25 3.25-1.46 3.25-3.25-1.46-3.25-3.25-3.25zm0 5.19c-.36 0-.65-.29-.65-.65v-1.95c-.36 0-.65-.29-.65-.65s.29-.65.65-.65h.65c.36 0 .65.29.65.65v2.6c0 .36-.29.65-.65.65zm-33.56004 25.12011c-.44 0-.88-.06-1.31-.19-.73-.22-1.4-.62-1.93-1.17-.53-.54-.93-1.22-1.13-1.95-.2099996-.73-.2299996-1.51-.06-2.26.17-.74.53-1.44 1.04-2 .51-.57 1.16-1 1.87-1.26.34-.12.71.06.83.39.12.34-.06.71-.39.83-.51.18-.98.49-1.34.9s-.62.9-.74 1.43-.11 1.09.04 1.61.43 1.01.81 1.39c.38.39.86.68 1.38.83.52.16 1.08.18 1.61.07s1.03-.36 1.44-.72.73-.81.92-1.32c.12-.34.5-.51.83-.38.34.12.51.5.38.83-.27.71-.71 1.36-1.29 1.85-.58.5-1.28.84-2.02 1-.31.07-.63.1-.95.1zm.91-2.98c-.17 0-.33-.06-.46-.19l-1.83-1.83c-.25-.25-.25-.67 0-.92s.66-.25.92 0l1.38 1.38c.25-.25.67-.25.92 0s.25.67 0 .92l-.46.46c-.13.12-.29.19-.46.19zm4.28-2.22c-2.51 0-4.55-2.04-4.55-4.55s2.04-4.55 4.55-4.55c2.51004 0 4.55004 2.04 4.55004 4.55s-2.04 4.55-4.55004 4.55zm0-7.79c-1.79 0-3.25 1.46-3.25 3.25s1.46 3.25 3.25 3.25c1.79004 0 3.25004-1.46 3.25004-3.25s-1.46-3.25-3.25004-3.25zm1.29004 3.9h-2.60004c-.36 0-.65-.29-.65-.65s.29-.65.65-.65h1.95004c0-.36.29-.65.65-.65s.65.29.65.65v.65c0 .36-.29.65-.65.65zm49.1299 24.7699c-.68 0-1.36-.16-1.97-.47-.66-.33-1.22-.83-1.64-1.43-.2-.29-.12-.67.16-.87.29-.2.68-.12.87.16.3.43.7.79 1.17 1.02s1 .37 1.52.33c.52-.02 1.04-.17 1.49-.44s.83-.65 1.1-1.1.41-.97.43-1.49-.1-1.05-.34-1.52-.59-.87-1.03-1.17c-.43-.29-.94-.48-1.46-.53-.34-.03-.6-.34-.56-.68.03-.34.36-.59.68-.56.73.07 1.44.33 2.05.74s1.11.98 1.44 1.63.5 1.39.48 2.12-.23 1.46-.6 2.09-.9 1.17-1.53 1.54c-.63.38-1.35.59-2.09.62h-.15zm-.62-2.67c-.11 0-.21-.03-.31-.08-.3-.17-.4-.56-.23-.85l.94-1.62c-.3-.18-.4-.56-.22-.86.17-.3.56-.4.86-.22l.54.32c.3.17.4.55.23.85l-1.25 2.16c-.12.2-.33.31-.54.31zm-5.51-.87c-1.93 0-3.71-1.29-4.23-3.25-.63-2.33.76-4.74 3.1-5.37 2.33-.62 4.74.76 5.37 3.1.3 1.13.15 2.31-.44 3.33-.59 1.01-1.53 1.74-2.66 2.04-.38.1-.76.15-1.13.15zm0-7.51c-.27 0-.54.03-.81.11-.81.22-1.48.73-1.9 1.46-.42.72-.53 1.57-.31 2.38s.73 1.48 1.46 1.9c.72.42 1.57.53 2.38.31s1.48-.73 1.9-1.46c.42-.72.53-1.57.31-2.38-.38-1.4-1.64-2.32-3.02-2.32zm.33 4.96c-.28 0-.53-.18-.6-.46l-.49-1.81c-.34.09-.68-.11-.77-.44s.11-.68.44-.77l.61-.16c.16-.04.33-.02.48.06.14.08.25.22.29.38l.65 2.42c.09.33-.11.68-.44.77-.05.01-.11.02-.16.02zm-22.07.19c-.88 0-1.75-.21-2.53-.6-.84-.42-1.57-1.06-2.11-1.84-.25-.37-.16-.87.21-1.12s.87-.16 1.12.21c.38.56.91 1.01 1.51 1.31s1.27.46 1.95.43c.67-.02 1.34-.22 1.92-.57s1.07-.83 1.41-1.42c.34-.58.53-1.25.55-1.92s-.13-1.35-.44-1.95-.76-1.12-1.32-1.5-1.21-.61-1.88-.68c-.44-.04-.77-.43-.72-.88.04-.44.44-.77.88-.72.94.09 1.85.42 2.63.95s1.42 1.26 1.85 2.1.64 1.78.61 2.73c-.03.94-.3 1.87-.77 2.69s-1.16 1.5-1.97 1.98-1.74.76-2.68.79h-.2zm-.8-3.43c-.14 0-.27-.03-.4-.11-.38-.22-.52-.71-.29-1.1l1.21-2.09c-.38-.23-.51-.72-.29-1.1.23-.38.72-.51 1.1-.29l.69.41c.38.22.51.71.29 1.1l-1.6 2.78c-.15.26-.42.4-.7.4zm-7.09-1.11c-.98 0-1.94-.26-2.81-.76-1.3-.75-2.24-1.97-2.62-3.42-.39-1.45-.19-2.97.56-4.28.75-1.3 1.97-2.24 3.42-2.62 1.45-.39 2.97-.19 4.28.56 1.3.75 2.24 1.97 2.62 3.42.39 1.45.19 2.97-.56 4.27s-1.97 2.24-3.42 2.62c-.49.13-.98.19-1.47.19zm.02-9.67c-.35 0-.7.05-1.05.14-1.04.28-1.91.94-2.44 1.88-.54.93-.68 2.02-.4 3.05.28 1.04.94 1.91 1.88 2.44.93.54 2.01.68 3.05.4s1.91-.94 2.44-1.88c.54-.93.68-2.01.4-3.05s-.94-1.91-1.88-2.44c-.62-.36-1.31-.54-2-.54zm.41 6.39c-.35 0-.68-.24-.78-.6l-.62-2.33c-.43.11-.87-.14-.99-.57s.14-.87.57-.99l.78-.21c.21-.06.42-.03.61.08.18.11.32.28.38.49l.83 3.11c.12.43-.14.87-.57.99-.07.02-.14.03-.21.03zm13.5999 44.9101c-.32 0-.65-.04-.97-.13-1.98-.53-3.16-2.58-2.63-4.56.26-.96.87-1.76 1.73-2.26s1.86-.63 2.83-.37c1.98.53 3.16 2.58 2.63 4.56-.26.96-.87 1.76-1.73 2.26-.57.33-1.21.5-1.86.5zm-.01-6.38c-.46 0-.92.12-1.32.36-.62.35-1.06.93-1.24 1.61-.38 1.42.46 2.88 1.88 3.26.69.18 1.4.09 2.02-.27s1.06-.93 1.24-1.62c.38-1.42-.46-2.88-1.88-3.26-.23-.06-.46-.09-.69-.09zm1.03 3.47s-.09 0-.14-.02l-1.54-.41c-.08.28-.37.45-.65.38-.28-.08-.45-.37-.38-.65l.14-.51c.08-.28.37-.46.65-.38l2.06.55c.28.08.45.37.38.65-.06.24-.28.39-.51.39zm4.43-.11c-.27 0-.51-.21-.53-.49-.02-.29.2-.55.49-.57.44-.04.88-.18 1.25-.43s.68-.58.89-.98c.21-.39.32-.84.31-1.28 0-.45-.13-.89-.35-1.27-.22-.39-.54-.72-.92-.95s-.81-.37-1.26-.39-.89.07-1.29.26-.75.49-1.01.85c-.17.24-.5.29-.74.12s-.29-.5-.12-.74c.36-.51.85-.92 1.41-1.19s1.19-.4 1.81-.37 1.23.22 1.77.55.97.79 1.28 1.33.47 1.16.48 1.78c0 .62-.14 1.25-.43 1.8s-.72 1.03-1.25 1.37c-.52.34-1.13.55-1.75.6zm.29-2.26c-.18 0-.36-.1-.46-.27l-.8-1.38c-.25.14-.58.06-.73-.2-.14-.26-.05-.58.2-.73l.46-.26c.25-.14.58-.06.72.2l1.06 1.84c.15.25.06.58-.2.73-.08.05-.17.07-.26.07z" fill="#e5ffc3"/></svg>